<svg xmlns="http://www.w3.org/2000/svg" width="120" height="120" viewBox="0 0 120 120">
  <rect width="120" height="120" fill="#1a1a1a"/>
  <g fill="#080808" opacity="0.9">
    <circle cx="3" cy="3" r="1.2"/>
    <circle cx="9" cy="3" r="1.2"/>
    <circle cx="15" cy="3" r="1.2"/>
    <circle cx="21" cy="3" r="1.2"/>
    <circle cx="27" cy="3" r="1.2"/>
    <circle cx="33" cy="3" r="1.2"/>
    <circle cx="39" cy="3" r="1.2"/>
    <circle cx="45" cy="3" r="1.2"/>
    <circle cx="51" cy="3" r="1.2"/>
    <circle cx="57" cy="3" r="1.2"/>
    <circle cx="63" cy="3" r="1.2"/>
    <circle cx="69" cy="3" r="1.2"/>
    <circle cx="75" cy="3" r="1.2"/>
    <circle cx="81" cy="3" r="1.2"/>
    <circle cx="87" cy="3" r="1.2"/>
    <circle cx="93" cy="3" r="1.2"/>
    <circle cx="99" cy="3" r="1.2"/>
    <circle cx="105" cy="3" r="1.2"/>
    <circle cx="111" cy="3" r="1.2"/>
    <circle cx="117" cy="3" r="1.2"/>

    <circle cx="6" cy="9" r="1.2"/>
    <circle cx="12" cy="9" r="1.2"/>
    <circle cx="18" cy="9" r="1.2"/>
    <circle cx="24" cy="9" r="1.2"/>
    <circle cx="30" cy="9" r="1.2"/>
    <circle cx="36" cy="9" r="1.2"/>
    <circle cx="42" cy="9" r="1.2"/>
    <circle cx="48" cy="9" r="1.2"/>
    <circle cx="54" cy="9" r="1.2"/>
    <circle cx="60" cy="9" r="1.2"/>
    <circle cx="66" cy="9" r="1.2"/>
    <circle cx="72" cy="9" r="1.2"/>
    <circle cx="78" cy="9" r="1.2"/>
    <circle cx="84" cy="9" r="1.2"/>
    <circle cx="90" cy="9" r="1.2"/>
    <circle cx="96" cy="9" r="1.2"/>
    <circle cx="102" cy="9" r="1.2"/>
    <circle cx="108" cy="9" r="1.2"/>
    <circle cx="114" cy="9" r="1.2"/>

    <circle cx="3" cy="15" r="1.2"/>
    <circle cx="9" cy="15" r="1.2"/>
    <circle cx="15" cy="15" r="1.2"/>
    <circle cx="21" cy="15" r="1.2"/>
    <circle cx="27" cy="15" r="1.2"/>
    <circle cx="33" cy="15" r="1.2"/>
    <circle cx="39" cy="15" r="1.2"/>
    <circle cx="45" cy="15" r="1.2"/>
    <circle cx="51" cy="15" r="1.2"/>
    <circle cx="57" cy="15" r="1.2"/>
    <circle cx="63" cy="15" r="1.2"/>
    <circle cx="69" cy="15" r="1.2"/>
    <circle cx="75" cy="15" r="1.2"/>
    <circle cx="81" cy="15" r="1.2"/>
    <circle cx="87" cy="15" r="1.2"/>
    <circle cx="93" cy="15" r="1.2"/>
    <circle cx="99" cy="15" r="1.2"/>
    <circle cx="105" cy="15" r="1.2"/>
    <circle cx="111" cy="15" r="1.2"/>
    <circle cx="117" cy="15" r="1.2"/>

    <circle cx="6" cy="21" r="1.2"/>
    <circle cx="12" cy="21" r="1.2"/>
    <circle cx="18" cy="21" r="1.2"/>
    <circle cx="24" cy="21" r="1.2"/>
    <circle cx="30" cy="21" r="1.2"/>
    <circle cx="36" cy="21" r="1.2"/>
    <circle cx="42" cy="21" r="1.2"/>
    <circle cx="48" cy="21" r="1.2"/>
    <circle cx="54" cy="21" r="1.2"/>
    <circle cx="60" cy="21" r="1.2"/>
    <circle cx="66" cy="21" r="1.2"/>
    <circle cx="72" cy="21" r="1.2"/>
    <circle cx="78" cy="21" r="1.2"/>
    <circle cx="84" cy="21" r="1.2"/>
    <circle cx="90" cy="21" r="1.2"/>
    <circle cx="96" cy="21" r="1.2"/>
    <circle cx="102" cy="21" r="1.2"/>
    <circle cx="108" cy="21" r="1.2"/>
    <circle cx="114" cy="21" r="1.2"/>

    <circle cx="3" cy="27" r="1.2"/>
    <circle cx="9" cy="27" r="1.2"/>
    <circle cx="15" cy="27" r="1.2"/>
    <circle cx="21" cy="27" r="1.2"/>
    <circle cx="27" cy="27" r="1.2"/>
    <circle cx="33" cy="27" r="1.2"/>
    <circle cx="39" cy="27" r="1.2"/>
    <circle cx="45" cy="27" r="1.2"/>
    <circle cx="51" cy="27" r="1.2"/>
    <circle cx="57" cy="27" r="1.2"/>
    <circle cx="63" cy="27" r="1.2"/>
    <circle cx="69" cy="27" r="1.2"/>
    <circle cx="75" cy="27" r="1.2"/>
    <circle cx="81" cy="27" r="1.2"/>
    <circle cx="87" cy="27" r="1.2"/>
    <circle cx="93" cy="27" r="1.2"/>
    <circle cx="99" cy="27" r="1.2"/>
    <circle cx="105" cy="27" r="1.2"/>
    <circle cx="111" cy="27" r="1.2"/>
    <circle cx="117" cy="27" r="1.2"/>

    <circle cx="6" cy="33" r="1.2"/>
    <circle cx="12" cy="33" r="1.2"/>
    <circle cx="18" cy="33" r="1.2"/>
    <circle cx="24" cy="33" r="1.2"/>
    <circle cx="30" cy="33" r="1.2"/>
    <circle cx="36" cy="33" r="1.2"/>
    <circle cx="42" cy="33" r="1.2"/>
    <circle cx="48" cy="33" r="1.2"/>
    <circle cx="54" cy="33" r="1.2"/>
    <circle cx="60" cy="33" r="1.2"/>
    <circle cx="66" cy="33" r="1.2"/>
    <circle cx="72" cy="33" r="1.2"/>
    <circle cx="78" cy="33" r="1.2"/>
    <circle cx="84" cy="33" r="1.2"/>
    <circle cx="90" cy="33" r="1.2"/>
    <circle cx="96" cy="33" r="1.2"/>
    <circle cx="102" cy="33" r="1.2"/>
    <circle cx="108" cy="33" r="1.2"/>
    <circle cx="114" cy="33" r="1.2"/>

    <circle cx="3" cy="39" r="1.2"/>
    <circle cx="9" cy="39" r="1.2"/>
    <circle cx="15" cy="39" r="1.2"/>
    <circle cx="21" cy="39" r="1.2"/>
    <circle cx="27" cy="39" r="1.2"/>
    <circle cx="33" cy="39" r="1.2"/>
    <circle cx="39" cy="39" r="1.2"/>
    <circle cx="45" cy="39" r="1.2"/>
    <circle cx="51" cy="39" r="1.2"/>
    <circle cx="57" cy="39" r="1.2"/>
    <circle cx="63" cy="39" r="1.2"/>
    <circle cx="69" cy="39" r="1.2"/>
    <circle cx="75" cy="39" r="1.2"/>
    <circle cx="81" cy="39" r="1.2"/>
    <circle cx="87" cy="39" r="1.2"/>
    <circle cx="93" cy="39" r="1.2"/>
    <circle cx="99" cy="39" r="1.2"/>
    <circle cx="105" cy="39" r="1.2"/>
    <circle cx="111" cy="39" r="1.2"/>
    <circle cx="117" cy="39" r="1.2"/>

    <circle cx="6" cy="45" r="1.2"/>
    <circle cx="12" cy="45" r="1.2"/>
    <circle cx="18" cy="45" r="1.2"/>
    <circle cx="24" cy="45" r="1.2"/>
    <circle cx="30" cy="45" r="1.2"/>
    <circle cx="36" cy="45" r="1.2"/>
    <circle cx="42" cy="45" r="1.2"/>
    <circle cx="48" cy="45" r="1.2"/>
    <circle cx="54" cy="45" r="1.2"/>
    <circle cx="60" cy="45" r="1.2"/>
    <circle cx="66" cy="45" r="1.2"/>
    <circle cx="72" cy="45" r="1.2"/>
    <circle cx="78" cy="45" r="1.2"/>
    <circle cx="84" cy="45" r="1.2"/>
    <circle cx="90" cy="45" r="1.2"/>
    <circle cx="96" cy="45" r="1.2"/>
    <circle cx="102" cy="45" r="1.2"/>
    <circle cx="108" cy="45" r="1.2"/>
    <circle cx="114" cy="45" r="1.2"/>

    <circle cx="3" cy="51" r="1.2"/>
    <circle cx="9" cy="51" r="1.2"/>
    <circle cx="15" cy="51" r="1.2"/>
    <circle cx="21" cy="51" r="1.2"/>
    <circle cx="27" cy="51" r="1.2"/>
    <circle cx="33" cy="51" r="1.2"/>
    <circle cx="39" cy="51" r="1.2"/>
    <circle cx="45" cy="51" r="1.2"/>
    <circle cx="51" cy="51" r="1.2"/>
    <circle cx="57" cy="51" r="1.2"/>
    <circle cx="63" cy="51" r="1.2"/>
    <circle cx="69" cy="51" r="1.2"/>
    <circle cx="75" cy="51" r="1.2"/>
    <circle cx="81" cy="51" r="1.2"/>
    <circle cx="87" cy="51" r="1.2"/>
    <circle cx="93" cy="51" r="1.2"/>
    <circle cx="99" cy="51" r="1.2"/>
    <circle cx="105" cy="51" r="1.2"/>
    <circle cx="111" cy="51" r="1.2"/>
    <circle cx="117" cy="51" r="1.2"/>

    <circle cx="6" cy="57" r="1.2"/>
    <circle cx="12" cy="57" r="1.2"/>
    <circle cx="18" cy="57" r="1.2"/>
    <circle cx="24" cy="57" r="1.2"/>
    <circle cx="30" cy="57" r="1.2"/>
    <circle cx="36" cy="57" r="1.2"/>
    <circle cx="42" cy="57" r="1.2"/>
    <circle cx="48" cy="57" r="1.2"/>
    <circle cx="54" cy="57" r="1.2"/>
    <circle cx="60" cy="57" r="1.2"/>
    <circle cx="66" cy="57" r="1.2"/>
    <circle cx="72" cy="57" r="1.2"/>
    <circle cx="78" cy="57" r="1.2"/>
    <circle cx="84" cy="57" r="1.2"/>
    <circle cx="90" cy="57" r="1.2"/>
    <circle cx="96" cy="57" r="1.2"/>
    <circle cx="102" cy="57" r="1.2"/>
    <circle cx="108" cy="57" r="1.2"/>
    <circle cx="114" cy="57" r="1.2"/>

    <circle cx="3" cy="63" r="1.2"/>
    <circle cx="9" cy="63" r="1.2"/>
    <circle cx="15" cy="63" r="1.2"/>
    <circle cx="21" cy="63" r="1.2"/>
    <circle cx="27" cy="63" r="1.2"/>
    <circle cx="33" cy="63" r="1.2"/>
    <circle cx="39" cy="63" r="1.2"/>
    <circle cx="45" cy="63" r="1.2"/>
    <circle cx="51" cy="63" r="1.2"/>
    <circle cx="57" cy="63" r="1.2"/>
    <circle cx="63" cy="63" r="1.2"/>
    <circle cx="69" cy="63" r="1.2"/>
    <circle cx="75" cy="63" r="1.2"/>
    <circle cx="81" cy="63" r="1.2"/>
    <circle cx="87" cy="63" r="1.2"/>
    <circle cx="93" cy="63" r="1.2"/>
    <circle cx="99" cy="63" r="1.2"/>
    <circle cx="105" cy="63" r="1.2"/>
    <circle cx="111" cy="63" r="1.2"/>
    <circle cx="117" cy="63" r="1.2"/>

    <circle cx="6" cy="69" r="1.2"/>
    <circle cx="12" cy="69" r="1.2"/>
    <circle cx="18" cy="69" r="1.2"/>
    <circle cx="24" cy="69" r="1.2"/>
    <circle cx="30" cy="69" r="1.2"/>
    <circle cx="36" cy="69" r="1.2"/>
    <circle cx="42" cy="69" r="1.2"/>
    <circle cx="48" cy="69" r="1.2"/>
    <circle cx="54" cy="69" r="1.2"/>
    <circle cx="60" cy="69" r="1.2"/>
    <circle cx="66" cy="69" r="1.2"/>
    <circle cx="72" cy="69" r="1.2"/>
    <circle cx="78" cy="69" r="1.2"/>
    <circle cx="84" cy="69" r="1.2"/>
    <circle cx="90" cy="69" r="1.2"/>
    <circle cx="96" cy="69" r="1.2"/>
    <circle cx="102" cy="69" r="1.2"/>
    <circle cx="108" cy="69" r="1.2"/>
    <circle cx="114" cy="69" r="1.2"/>

    <circle cx="3" cy="75" r="1.2"/>
    <circle cx="9" cy="75" r="1.2"/>
    <circle cx="15" cy="75" r="1.2"/>
    <circle cx="21" cy="75" r="1.2"/>
    <circle cx="27" cy="75" r="1.2"/>
    <circle cx="33" cy="75" r="1.2"/>
    <circle cx="39" cy="75" r="1.2"/>
    <circle cx="45" cy="75" r="1.2"/>
    <circle cx="51" cy="75" r="1.2"/>
    <circle cx="57" cy="75" r="1.2"/>
    <circle cx="63" cy="75" r="1.2"/>
    <circle cx="69" cy="75" r="1.2"/>
    <circle cx="75" cy="75" r="1.2"/>
    <circle cx="81" cy="75" r="1.2"/>
    <circle cx="87" cy="75" r="1.2"/>
    <circle cx="93" cy="75" r="1.2"/>
    <circle cx="99" cy="75" r="1.2"/>
    <circle cx="105" cy="75" r="1.2"/>
    <circle cx="111" cy="75" r="1.2"/>
    <circle cx="117" cy="75" r="1.2"/>

    <circle cx="6" cy="81" r="1.2"/>
    <circle cx="12" cy="81" r="1.2"/>
    <circle cx="18" cy="81" r="1.2"/>
    <circle cx="24" cy="81" r="1.2"/>
    <circle cx="30" cy="81" r="1.2"/>
    <circle cx="36" cy="81" r="1.2"/>
    <circle cx="42" cy="81" r="1.2"/>
    <circle cx="48" cy="81" r="1.2"/>
    <circle cx="54" cy="81" r="1.2"/>
    <circle cx="60" cy="81" r="1.2"/>
    <circle cx="66" cy="81" r="1.2"/>
    <circle cx="72" cy="81" r="1.2"/>
    <circle cx="78" cy="81" r="1.2"/>
    <circle cx="84" cy="81" r="1.2"/>
    <circle cx="90" cy="81" r="1.2"/>
    <circle cx="96" cy="81" r="1.2"/>
    <circle cx="102" cy="81" r="1.2"/>
    <circle cx="108" cy="81" r="1.2"/>
    <circle cx="114" cy="81" r="1.2"/>

    <circle cx="3" cy="87" r="1.2"/>
    <circle cx="9" cy="87" r="1.2"/>
    <circle cx="15" cy="87" r="1.2"/>
    <circle cx="21" cy="87" r="1.2"/>
    <circle cx="27" cy="87" r="1.2"/>
    <circle cx="33" cy="87" r="1.2"/>
    <circle cx="39" cy="87" r="1.2"/>
    <circle cx="45" cy="87" r="1.2"/>
    <circle cx="51" cy="87" r="1.2"/>
    <circle cx="57" cy="87" r="1.2"/>
    <circle cx="63" cy="87" r="1.2"/>
    <circle cx="69" cy="87" r="1.2"/>
    <circle cx="75" cy="87" r="1.2"/>
    <circle cx="81" cy="87" r="1.2"/>
    <circle cx="87" cy="87" r="1.2"/>
    <circle cx="93" cy="87" r="1.2"/>
    <circle cx="99" cy="87" r="1.2"/>
    <circle cx="105" cy="87" r="1.2"/>
    <circle cx="111" cy="87" r="1.2"/>
    <circle cx="117" cy="87" r="1.2"/>

    <circle cx="6" cy="93" r="1.2"/>
    <circle cx="12" cy="93" r="1.2"/>
    <circle cx="18" cy="93" r="1.2"/>
    <circle cx="24" cy="93" r="1.2"/>
    <circle cx="30" cy="93" r="1.2"/>
    <circle cx="36" cy="93" r="1.2"/>
    <circle cx="42" cy="93" r="1.2"/>
    <circle cx="48" cy="93" r="1.2"/>
    <circle cx="54" cy="93" r="1.2"/>
    <circle cx="60" cy="93" r="1.2"/>
    <circle cx="66" cy="93" r="1.2"/>
    <circle cx="72" cy="93" r="1.2"/>
    <circle cx="78" cy="93" r="1.2"/>
    <circle cx="84" cy="93" r="1.2"/>
    <circle cx="90" cy="93" r="1.2"/>
    <circle cx="96" cy="93" r="1.2"/>
    <circle cx="102" cy="93" r="1.2"/>
    <circle cx="108" cy="93" r="1.2"/>
    <circle cx="114" cy="93" r="1.2"/>

    <circle cx="3" cy="99" r="1.2"/>
    <circle cx="9" cy="99" r="1.2"/>
    <circle cx="15" cy="99" r="1.2"/>
    <circle cx="21" cy="99" r="1.2"/>
    <circle cx="27" cy="99" r="1.2"/>
    <circle cx="33" cy="99" r="1.2"/>
    <circle cx="39" cy="99" r="1.2"/>
    <circle cx="45" cy="99" r="1.2"/>
    <circle cx="51" cy="99" r="1.2"/>
    <circle cx="57" cy="99" r="1.2"/>
    <circle cx="63" cy="99" r="1.2"/>
    <circle cx="69" cy="99" r="1.2"/>
    <circle cx="75" cy="99" r="1.2"/>
    <circle cx="81" cy="99" r="1.2"/>
    <circle cx="87" cy="99" r="1.2"/>
    <circle cx="93" cy="99" r="1.2"/>
    <circle cx="99" cy="99" r="1.2"/>
    <circle cx="105" cy="99" r="1.2"/>
    <circle cx="111" cy="99" r="1.2"/>
    <circle cx="117" cy="99" r="1.2"/>

    <circle cx="6" cy="105" r="1.2"/>
    <circle cx="12" cy="105" r="1.2"/>
    <circle cx="18" cy="105" r="1.2"/>
    <circle cx="24" cy="105" r="1.2"/>
    <circle cx="30" cy="105" r="1.2"/>
    <circle cx="36" cy="105" r="1.2"/>
    <circle cx="42" cy="105" r="1.2"/>
    <circle cx="48" cy="105" r="1.2"/>
    <circle cx="54" cy="105" r="1.2"/>
    <circle cx="60" cy="105" r="1.2"/>
    <circle cx="66" cy="105" r="1.2"/>
    <circle cx="72" cy="105" r="1.2"/>
    <circle cx="78" cy="105" r="1.2"/>
    <circle cx="84" cy="105" r="1.2"/>
    <circle cx="90" cy="105" r="1.2"/>
    <circle cx="96" cy="105" r="1.2"/>
    <circle cx="102" cy="105" r="1.2"/>
    <circle cx="108" cy="105" r="1.2"/>
    <circle cx="114" cy="105" r="1.2"/>

    <circle cx="3" cy="111" r="1.2"/>
    <circle cx="9" cy="111" r="1.2"/>
    <circle cx="15" cy="111" r="1.2"/>
    <circle cx="21" cy="111" r="1.2"/>
    <circle cx="27" cy="111" r="1.2"/>
    <circle cx="33" cy="111" r="1.2"/>
    <circle cx="39" cy="111" r="1.2"/>
    <circle cx="45" cy="111" r="1.2"/>
    <circle cx="51" cy="111" r="1.2"/>
    <circle cx="57" cy="111" r="1.2"/>
    <circle cx="63" cy="111" r="1.2"/>
    <circle cx="69" cy="111" r="1.2"/>
    <circle cx="75" cy="111" r="1.2"/>
    <circle cx="81" cy="111" r="1.2"/>
    <circle cx="87" cy="111" r="1.2"/>
    <circle cx="93" cy="111" r="1.2"/>
    <circle cx="99" cy="111" r="1.2"/>
    <circle cx="105" cy="111" r="1.2"/>
    <circle cx="111" cy="111" r="1.2"/>
    <circle cx="117" cy="111" r="1.2"/>

    <circle cx="6" cy="117" r="1.2"/>
    <circle cx="12" cy="117" r="1.2"/>
    <circle cx="18" cy="117" r="1.2"/>
    <circle cx="24" cy="117" r="1.2"/>
    <circle cx="30" cy="117" r="1.2"/>
    <circle cx="36" cy="117" r="1.2"/>
    <circle cx="42" cy="117" r="1.2"/>
    <circle cx="48" cy="117" r="1.2"/>
    <circle cx="54" cy="117" r="1.2"/>
    <circle cx="60" cy="117" r="1.2"/>
    <circle cx="66" cy="117" r="1.2"/>
    <circle cx="72" cy="117" r="1.2"/>
    <circle cx="78" cy="117" r="1.2"/>
    <circle cx="84" cy="117" r="1.2"/>
    <circle cx="90" cy="117" r="1.2"/>
    <circle cx="96" cy="117" r="1.2"/>
    <circle cx="102" cy="117" r="1.2"/>
    <circle cx="108" cy="117" r="1.2"/>
    <circle cx="114" cy="117" r="1.2"/>
  </g>
</svg>
