<svg xmlns="http://www.w3.org/2000/svg" width="225" height="209" viewBox="0 0 225 209">
<!-- SVG created with Arrow, by QuiverAI (https://quiver.ai) -->
  <path d="m224.7 0h-224.2v208.7h224.2v-208.7z" fill="#A6F0B4"/>
  <path d="m218.1 41.33c-2.35-3.52-3.19-5.04-9.91-6.69-5.49-1.39-12.96 1.32-15.4 3.1-9.97 5.12-14.5 9.19-21.13 19.23-1.65 1.66-4.97 4.91-6.35 7.56-2.06 1.15-4.72 5.53-5.32 4.23-1.12-2.58-1.87-8.95-3.88-12.78s-4.48-11.74-6.96-15.89c-4.79-7.24-10.89-15.68-18.33-16.05-5.69-0.28-8.73 0.88-14.23 1.77-3.05 0.5-5.68 5.09-6.97 6.4-0.84 0.87-2.76-1.78-7.43-2.89-7.12-0.89-10.3 1.36-16 4.53l-3.83 5.62c-0.7 1.27-4.23-1.3-7.27-1.04-8.97 0.15-14.97 5.41-17.48 14.4-3.11-0.98-6.25-9-9.91-12.65-4.54-4.54-14.61-20.1-17.65-24.64-5.77-7.3-9.8-10.6-14.13-10.28-3.53 0.27-4.4 1.43-6.88 3.14-3.75 3.1-3.94 6.56-3.75 10.53-0.24 7.3 7.97 19.85 9.62 23.12 5.89 10.44 13.03 19.02 15.35 23.31s6.74 10.7 7.42 13.47c2.46 8.56 5.58 24.16 6.58 32.07 1.11 9.01 1.63 15.01 5.61 26.28 4.29 11.64 6.77 17.95 10.59 22.41 3.83 4.46 4.58 19.11 5.17 23.26s1.17 11.27 1.41 12.92 3.46 2.29 4.85 2.66c5.7 1.3 9.8 2.69 15.4 3.67 2.15 0.21 8.98 1.24 10.77 0.96 1.7-0.29 4.61 0.73 7.89 0.07 1.65 0.28 2.64-0.31 4.04-0.23 2.9 0.16 14.27-1.83 18.1-3.4 2.83-1.1 4.16-1.79 6.99-2.95 1.93-0.81 7.11-3.76 8.28-6.67 0.21-0.55 0.48-2.95 0.9-3.64 0.94-1.62-0.73-8.52-1.37-13.17-0.89-6.56 0.36-10.05 0.64-16.09 0.27-3.27 4.18-5.52 12.05-13.2 5.23-5.17 19.11-22.06 22.29-27.9 3.18-4.71 8.92-20.35 11.72-25.87 1.55-3.24 8.67-11.89 10.25-15.93 2.89-6.39 7.06-11.89 10.69-14.02 6.22-3.49 10.17-6.34 10.17-10.44 0-3.51-0.79-5.44-2.6-8.29zm-173.2 46.33c-0.84-2.32 0.07-3.07-1.24-5.65-1.55-3.27 0.39-5.35 2.99-7.42l0.91-0.51 0.17-1.27 1.52-0.5c1.77-2.09 5.45-3.6 7.61-4.05 1.82-0.4 2.13 2.22 0.77 3-0.96 0.55 0.14 1.57 0.45 1.88l3.15 4.04 0.41 1.94 1.06 0.8 2.41 6.37 0.42 1.12-0.78 1.5c-4.8-0.4-10.6 1.91-14.72 3.75-2.97 0.93-4.38-2.65-5.13-5zm-4.37-42.81 0.5-1.04 1.4 0.9 1.5 3 2.69 4.04 0.49 1.43 3.25 4.53 4.29 5.12 0.2 1.5-4.8 3.38-2.25 2.35-0.42 2.58-3.18 2.07-2.41-3.75-2.56-3.83-1.01-2.02-2.97-2.96-2.35-3.91 0.95-2.13 1.01-1.04 1.09-1.69 2.9-3.09 0.97-1.04 0.71-4.4zm-29.11-27.81c-0.27-3.83 0.77-7.66 4.53-7.93 1.91-0.15 2.9 0.8 4.07 2.93 1.43 2.74 3.69 3.92 4.63 5.88l0.81 0.03 1.24 2.82 0.84 0.4 0.24 1.9 6.1 7.55-0.95 2.01 2.48 2.46 3.76 5.23-1.46 3.17-0.84-0.11-0.84 2.36-2.54 1.73-4.33 6.27-2.01-4.61-2.48-3.02-2.34-4.21 2.48-2.49 2.48-0.28c2.34-0.64 1.66-3.02-0.82-2.38l-5.31 1.59-1.49-3.02-4.1-6.69-2.97-7.49-1.18-4.1zm88.75 157-1.52-7.97 0.37-4.84 1.15 0.92v11.89zm33.21 10.88-1.13-6.79 1.07-6.11-0.44-5.89 0.88-4.04 0.89 0.64-0.78 6.99 0.78 7.29-1.27 7.91zm6.44-36.73c-5.63 3.52-9.82 3.89-14.29 3.89-3.97 0-7.46-0.89-9.54-0.75-1.84 0.12-7.64-1.4-9.41-4.15l-4.43-8.44-4.67-6.56 0.27-4.07 2.97-11.78 1.33-0.89 0.46-2.29 5.23-6.11c6.27-0.54 12.27-2.42 14.39-7.75 2.22-0.16 5.92-0.12 7.86-1.17 3.18-1.7 6.84-3.01 8.49-6.53l6.22-3.83 4.95-1.34 0.88 9.41 1.03 3.52c0.7 1.52 2.28 0.14 1.57-1.07l-1.13-2.19 0.65-10.04 3.35-2.13 2.01 4.54 6.1 8.58c1.55 2.58 3.1 0 1.96-0.95l-2.22-2.96-4.66-10.9 0.94-4.1 3.69-4.04 6.98-9.28 1.65-0.47 4.54 4.53c3.04 2.45 5.39 0.49 3.56-2.09l-4.54-6.76c1.65-2.25 4.34-6.54 7.04-8.79 4.1-2.35 9.9-7.71 16.82-9.1l4.1-0.72 2.01 0.12 4.04-0.82c3.18-0.38 3.67 2.04 3.08 3.94l-7.08 6.72-0.62 1.57-1.3 0.89-4 6.59 0.07 0.8-1.91 2.45-0.59 2.15-1.01 0.89-2.97 6.56-2.63 0.6-1.52 0.95-0.34 2.71-2.76 0.72 0.71 1.71 1.27-0.27-1.27 2.96 1.3 0.27-4.79 6.29-0.41 2.02-2.08 2.72-3.46 9.47-1.27 2.65-2.38 4.84-4.1 4.98-0.91 0.54-1.4 2.82-1.52 0.82v1.39l-1.55 0.89-1.37 3.17-3.14 2.82-1.07 0.38-1.46 3.08-1.65 0.48-0.94 2.35-1.27 0.36c-3.63 5.33-8.23 9.93-13.86 13.2zm72.6-99.58-3.82 3.83-0.24-0.82 3.82-3.52 0.24 0.51zm-92.27-17.7h5.11l4.33-1.65 1.16 0.46 1.3-0.89 3.72 2.82 0.88 1.21 1.07 0.4 4.85 5.76 3.46 8.94-0.59 2.26-1.64 2.25-2.94-10.41c-0.91-2.13-3.19-1.11-2.66 0.47l0.27 1.29-0.75 1.93-0.17 7.87-1.2 8.37 0.5 1.81h0.78l-1.53 14.99-2.5 7.63-2.28-5.12c-2.25-3.37-6.01-3.77-9.15-2.88l-2.05 1.05-2.15-0.4-2.12-10.8 2.25-1.13c2.83 0.58 6.15 0 7.22-0.82 1.4-1.09 0.36-1.64-0.77-1.36-2.15 0.58-5.33 0.43-6.95 0.16l-2.6-2-0.34-5.8 0.84-7.1-0.1-7.09 0.75-4.11-0.48-1.65 1.46-4.51 3.02-1.95zm23 44.78 4.7-2.92c2.9-1.6 3.4-3.82 0.92-3.28l-4.66 2.36-1.03 0.89-0.78-0.89 1.77-9.01 3.53-9.01 5.84 13.8 1.13 6.46-2.98 4.75c-1.43 1.81-3.94 1.74-5.74 1.29l-2.97 0.8-0.92 0.37 0.34-4.11 0.85-1.5zm-22.15 8.83c1.06-1.87 5.16-2.21 6.95-1.87 2.8 0.58 3.58 4.17 3.3 6.52-0.59 2.89-6.42 3.75-8.25 2.89-2.83-1.39-2.83-4.91-2-7.54zm-33.61-41.02c0.78-3.51 4.78-6.23 7.19-6.87l2.35-1.14 4.53-0.57c3.39 0.27 6.54 1.71 7.99 3.8l0.84 4.53-0.49 1.21 0.78 3.17-0.78 2.59 0.24 1.94-0.24 6.55 0.24 4.96 0.52 3.47-0.52 0.95 1.37 2.03 3.97 19.85-1.13 0.14c-2.15-2.35-6.62-3.24-8.45-1.85l-3.53 2.58-1.14 0.82-4-6.56-3.97-10.28-1.2-9.5-2.7-8.81-1.87-13.01zm16.61 51.93c0.27-2.96 3.45-3.77 6.28-3.77 3.18 0 4.38 1.81 3.97 5.08-0.51 3.1-2.59 3.42-6.8 3.42-3.04 0-3.69-2.13-3.45-4.73zm-40.96-39.91c0.14-2.35 1.41-4.29 2.03-4.56l0.34-2.93c1.66-2.25 4.14-3.11 5.79-2.81l3.25-1.18 2.21 0.68 1.03-0.14 3.56 3.38 4.7 18-0.24 3.17 2.05 7.86 2.15 9.43-7.15 3.33-1.27 6.92 0.11 1.81c-4.7-1.39-10.57-11.43-11.6-15.97-2.35-7.17-6.45-17.97-6.96-26.99zm9.87 115.7 1.27-0.95 1.52 0.47 8.41-2.52 11.8-1.9 1.14 5.7 0.56 9.67 0.94 12.44-1.17 1.71-5.11-0.57-17.62-3.52-1.55-1.59 0.07-6.34-1.27-11.46 1.01-1.14zm33.54 25.08-2.25-0.28-0.49-13.38c-0.14-1.87-2.25-1.4-2.25 0.08l-0.41 6.62-1.83-6.29-0.27-7.8 1.08-1.07 0.14-15.86c0-2.13-2.76-2.07-3.61-0.26l-0.78 4.61-15.53 3.52-0.2-0.75 8.97-5.33 2.05-2.05c1.13-1.94-1.02-2.31-2.67-1.26-3.59 2.35-6.7 3.74-11.4 3.37l-3.18-0.54-0.91-0.95h-2.25l-3.97-2.02-1.72-3.27-5.4-7.37-4.1-9.17-0.14-2.82-0.91-2.81 0.37-1.31-1.13-2.75 0.46-1.12-1.37-2.25 0.37-2.58-1.55-2.82 0.14-3.34-2.35-6.62 0.34-1.12-1.9-7.29 0.78-3.28 6.13-3.51 3.97-0.56 1.77-1.01 7.23 0.67 2.9 4.34c6.73 9.28 13.19 10.78 18.99 10.37 4.6-0.27 6.98-1.72 9.32-2.61l3.26 2.02-5.59 9.17-0.51 3.02-1.03 0.61c-2.34 6.79-3.3 14.47-1.75 18.36l0.41 1.72 0.97 0.54 1.77 4 1.94 1.74 1.59 4.32 2.9 3.02-0.65 4.54 1.46 13.38 1.09 12.88 2.35 10.38c1.65 1.31 3.48-0.81 2.89-2.31l-2.28-10.62-0.85-13.38 0.24-5.12-0.24-6.65 4.7 1.59c5.43 1.31 8.69 2.13 14.56 2.13l1.83 0.57-1.9 0.82-9.5-0.54c-2.05 0-2.8 2.35-0.2 2.9 4.27 0.95 6.51 0.81 10.34 0l2.05 0.47 1.37 11.26 1.07 11.71-1.52 2.86-7.44 5.62-4.7 0.79-11.07 0.07z" fill="#00A164"/>
  <path d="m126.1 108.6c-10.84 0-18.89 9.01-18.89 19.43 0 9.9 8.05 17.87 18.19 17.87 10.66 0 18.71-9.01 18.51-18.69-0.2-10.31-7.99-18.61-17.81-18.61zm-7.4 10.7c2.28 0 2.87 1.31 2.87 2.7 0 1.65-1.13 2.6-2.87 2.6-1.66 0-2.7-0.95-2.7-2.6 0-1.39 1.04-2.7 2.7-2.7zm17.7 13.37c-2.9 5.19-6.35 7.06-11.05 7.06-5.59 0-9.42-3.52-11.6-6.79-1.4-2.29 0.95-3.6 2.22-2.14 2.48 3.1 4.2 5.61 9.69 5.61 4.99 0 7.04-2.19 8.94-5.28 1.52-2.65 3.35-1.23 1.8 1.54zm-4.65-8.07c-1.94 0-2.9-1.09-2.9-2.6 0-1.65 1.2-2.7 2.86-2.7 1.83 0 2.79 1.05 2.79 2.7 0 1.51-1 2.6-2.75 2.6z" fill="#00A164"/>
  <path d="m76.79 85.23 1.76 1.58h4.41l4.15-2.1c1.52-0.89 0.61-2-0.79-1.6l-8.81 2.12h-0.72z" fill="#00A164"/>
  <path d="m97.47 77.72 1.55 1.2h3.69l4.7-2.19c1.52-0.89 0.61-2.07-0.94-1.6l-8.15 2.12-0.85 0.47z" fill="#00A164"/>
  <path d="m86.01 98.02c0.27-1.61 1.76-3.19 3.52-4.21 1.7-0.95 1.08-3.08-1.4-2.09-2.34 1.02-3.32 2.41-3.32 4.34 0 2.16 0.85 3.28 1.2 1.96z" fill="#00A164"/>
</svg>